<svg width="6" height="9" viewBox="0 0 6 9" fill="none" xmlns="http://www.w3.org/2000/svg">
<path d="M3.00001 0C1.34579 0 0 1.46219 0 3.25945C0 5.48993 2.6847 8.76436 2.79901 8.90265C2.90637 9.03256 3.09382 9.03234 3.20101 8.90265C3.31529 8.76436 6 5.48993 6 3.25945C5.99996 1.46219 4.65421 0 3.00001 0ZM3.00001 4.89939C2.16773 4.89939 1.49064 4.16373 1.49064 3.25945C1.49064 2.35519 2.16774 1.61955 3.00001 1.61955C3.83227 1.61955 4.50937 2.35521 4.50937 3.25947C4.50937 4.16373 3.83227 4.89939 3.00001 4.89939Z" fill="#1ABCFE"/>
</svg>
