<svg width="10" height="10" viewBox="0 0 10 10" fill="none" xmlns="http://www.w3.org/2000/svg">
<path d="M7.77704 10C6.85841 9.99917 5.95405 9.77213 5.14396 9.33895L4.89398 9.20008C3.16678 8.27145 1.75077 6.85542 0.822145 5.12825L0.683269 4.87828C0.238767 4.06358 0.00396108 3.15104 3.45387e-07 2.22297V1.85078C-0.000232966 1.55468 0.117745 1.27073 0.327747 1.06197L1.26655 0.123173C1.35772 0.0312927 1.48642 -0.0129919 1.61483 0.00332876C1.74323 0.0196494 1.85676 0.094731 1.92204 0.206498L3.17192 2.35073C3.29832 2.56898 3.26182 2.845 3.08304 3.02289L2.03314 4.0728C1.94595 4.15901 1.92564 4.29222 1.98315 4.40054L2.17757 4.76718C2.87586 6.06061 3.93813 7.12095 5.23284 7.81688L5.59947 8.01686C5.70779 8.07435 5.841 8.05402 5.92722 7.96686L6.97712 6.91697C7.15499 6.73821 7.43102 6.70171 7.64928 6.82809L9.79352 8.07796C9.90529 8.14324 9.98039 8.25678 9.99667 8.38516C10.013 8.51359 9.96873 8.6423 9.87684 8.73346L8.93804 9.67225C8.72929 9.88223 8.44531 10.0002 8.14923 10H7.77704Z" fill="#1ABCFE"/>
</svg>
