<svg width="174" height="38" viewBox="0 0 174 38" fill="none" xmlns="http://www.w3.org/2000/svg">
<g filter="url(#filter0_d_327_2207)">
<path d="M4 13.3427V13.9491L17.3811 29.0993V18.4388C15.391 16.4487 14.2751 15.3328 12.2849 13.3427H4Z" fill="#D9D9D9"/>
<path d="M17.382 29.1004H9.09811C7.10799 27.1103 5.99208 25.9944 4.00195 24.0042V13.9491L17.382 29.1004Z" fill="white"/>
<path d="M7.24647 3.9462H14.1368V10.5154H7.24647V3.9462ZM4 0.742188V13.3449H17.3811V0.742188H4Z" fill="white"/>
<path opacity="0.8" d="M17.3822 0.743286V13.346L14.1357 10.5154V3.9473H7.24647L4 0.743286H17.3822Z" fill="#E1DEDE"/>
<path d="M30.4249 7.306C30.7003 7.306 30.9355 7.40398 31.1315 7.59886C31.3263 7.79482 31.4243 8.02998 31.4243 8.30542V22.5357H30.4249C30.2507 22.5357 30.0885 22.4921 29.9361 22.405C29.7837 22.318 29.6639 22.1993 29.5779 22.0469C29.4908 21.8944 29.4473 21.7246 29.4473 21.5363V7.306H30.4249Z" fill="white" stroke="white" stroke-miterlimit="10"/>
<path d="M39.7734 22.5356V13.9752H52.657V14.8875C52.657 15.1477 52.559 15.3764 52.3641 15.5723C52.1693 15.7683 51.933 15.8663 51.6576 15.8663H41.7505V22.5356H39.7734Z" fill="white" stroke="white" stroke-miterlimit="10"/>
<path d="M67.3913 20.2548C67.8399 20.4867 68.0641 20.8558 68.0641 21.3631V22.5356C66.3984 22.1012 65.03 21.2031 63.9576 19.8411C62.8852 18.4792 62.3496 16.9158 62.3496 15.1478C62.3496 15.1336 62.3496 15.1042 62.3496 15.0607V7.30594H64.2396V15.1489C64.2396 16.2495 64.5292 17.2566 65.1083 18.1689C65.6886 19.0823 66.4485 19.7769 67.3913 20.2548ZM77.5804 15.0629C77.5804 15.1064 77.5804 15.1358 77.5804 15.15C77.5804 16.3236 77.3343 17.4242 76.8412 18.453C76.3491 19.4818 75.6676 20.3506 74.7988 21.0594C73.93 21.7692 72.9524 22.2624 71.8658 22.5367V21.3642C71.8658 20.8569 72.0825 20.4878 72.5169 20.2559C73.4728 19.778 74.237 19.0823 74.8097 18.17C75.3812 17.2566 75.6676 16.2506 75.6676 15.15V7.30594H77.5793V15.0629H77.5804Z" fill="white" stroke="white" stroke-miterlimit="10"/>
<path d="M98.6804 7.30594C98.9558 7.30594 99.191 7.40392 99.3869 7.5988C99.5818 7.79476 99.6798 8.02992 99.6798 8.30536V9.19699H86.9269C86.7527 9.19699 86.5905 9.15345 86.438 9.06635C86.2856 8.97926 86.1659 8.8595 86.0799 8.70817C85.9928 8.55575 85.9492 8.39354 85.9492 8.21935V7.30703H98.6804V7.30594ZM92.8145 13.0205C93.0899 13.0205 93.3218 13.1185 93.5102 13.3133C93.6985 13.5093 93.7932 13.7368 93.7932 13.9981V22.5367H92.8156C92.5402 22.5367 92.305 22.4387 92.109 22.2439C91.9131 22.0479 91.8151 21.8127 91.8151 21.5373V13.0205H92.8145Z" fill="white" stroke="white" stroke-miterlimit="10"/>
<path d="M113.046 20.2548C113.494 20.4867 113.718 20.8558 113.718 21.3631V22.5356C112.053 22.1012 110.684 21.2031 109.612 19.8411C108.54 18.4792 108.004 16.9158 108.004 15.1478C108.004 15.1336 108.004 15.1042 108.004 15.0607V7.30594H109.894V15.1489C109.894 16.2495 110.183 17.2566 110.763 18.1689C111.343 19.0823 112.104 19.7769 113.046 20.2548ZM123.235 15.0629C123.235 15.1064 123.235 15.1358 123.235 15.15C123.235 16.3236 122.989 17.4242 122.495 18.453C122.003 19.4818 121.322 20.3506 120.453 21.0594C119.584 21.7692 118.607 22.2624 117.52 22.5367V21.3642C117.52 20.8569 117.737 20.4878 118.171 20.2559C119.127 19.778 119.891 19.0823 120.464 18.17C121.036 17.2566 121.322 16.2506 121.322 15.15V7.30594H123.234V15.0629H123.235Z" fill="white" stroke="white" stroke-miterlimit="10"/>
<path d="M142.773 15.7792L146.206 22.5356H144.859C144.308 22.5356 143.903 22.2895 143.642 21.7975L140.622 15.8663H133.583V21.5373C133.583 21.8127 133.485 22.0479 133.29 22.2438C133.094 22.4387 132.859 22.5367 132.583 22.5367H131.605V13.9763H141.86V13.9545C142.512 13.9545 143.069 13.7226 143.533 13.2589C143.997 12.7951 144.229 12.2377 144.229 11.5866C144.229 10.9356 143.997 10.3771 143.533 9.91331C143.069 9.44953 142.512 9.21764 141.86 9.21764V9.19586H132.605C132.329 9.19586 132.094 9.09788 131.898 8.90192C131.703 8.70595 131.605 8.4708 131.605 8.19536V7.30481H141.73C141.774 7.30481 141.817 7.30481 141.861 7.30481C143.049 7.30481 144.059 7.72069 144.892 8.55354C145.725 9.38639 146.142 10.3967 146.142 11.5845C146.142 12.2507 145.997 12.8811 145.707 13.4744C145.418 14.0688 145.015 14.5642 144.501 14.9627C143.986 15.3633 143.411 15.6344 142.773 15.7792Z" fill="white" stroke="white" stroke-miterlimit="10"/>
<path d="M163.377 14.8887C163.377 15.1488 163.279 15.3775 163.085 15.5734C162.89 15.7694 162.653 15.8674 162.378 15.8674H154.575V13.9774H163.377V14.8887ZM168.002 20.6239C168.147 20.6239 168.281 20.6533 168.404 20.711C168.527 20.7687 168.631 20.8416 168.718 20.9276C168.806 21.0147 168.874 21.1192 168.924 21.2433C168.975 21.3664 169 21.4937 169 21.6233V22.5356H154.574V20.6239H168.002Z" fill="white" stroke="white" stroke-miterlimit="10"/>
<path d="M40.7511 7.30594H53.9819V8.21826C53.9819 8.4937 53.884 8.72559 53.6891 8.91393C53.4931 9.10228 53.258 9.19699 52.9825 9.19699H39.7734V8.30536C39.7734 8.03101 39.8671 7.79476 40.0554 7.5988C40.2438 7.40392 40.4756 7.30594 40.7511 7.30594Z" fill="#D9D9D9" stroke="#D9D9D9" stroke-miterlimit="10"/>
<path d="M168.783 8.21823C168.783 8.39242 168.739 8.55464 168.652 8.70705C168.565 8.85947 168.445 8.97922 168.294 9.06523C168.141 9.15233 167.972 9.19587 167.783 9.19587H154.574V7.30591H168.783V8.21823Z" fill="#D9D9D9" stroke="#D9D9D9" stroke-miterlimit="10"/>
</g>
<defs>
<filter id="filter0_d_327_2207" x="0" y="0.742188" width="173.5" height="36.3582" filterUnits="userSpaceOnUse" color-interpolation-filters="sRGB">
<feFlood flood-opacity="0" result="BackgroundImageFix"/>
<feColorMatrix in="SourceAlpha" type="matrix" values="0 0 0 0 0 0 0 0 0 0 0 0 0 0 0 0 0 0 127 0" result="hardAlpha"/>
<feOffset dy="4"/>
<feGaussianBlur stdDeviation="2"/>
<feComposite in2="hardAlpha" operator="out"/>
<feColorMatrix type="matrix" values="0 0 0 0 0 0 0 0 0 0 0 0 0 0 0 0 0 0 0.25 0"/>
<feBlend mode="normal" in2="BackgroundImageFix" result="effect1_dropShadow_327_2207"/>
<feBlend mode="normal" in="SourceGraphic" in2="effect1_dropShadow_327_2207" result="shape"/>
</filter>
</defs>
</svg>
